<svg id="Layer_1" data-name="Layer 1" xmlns="http://www.w3.org/2000/svg" viewBox="0 0 195.4341 14.6582"><defs><style>.cls-1{fill:#afa9a6;}.cls-2{fill:#eb8024;}</style></defs><path class="cls-1" d="M421.73239,295.6924h-.0605a6.323,6.323,0,0,0-4.002-1.27,5.14445,5.14445,0,0,0-5.42189,5.4926c0,2.6914,1.88679,5.8858,5.39849,5.8858a14.52139,14.52139,0,0,0,3.4414-.3965v-2.9932c0-.957-.0215-1.9384-.957-2.312v-.1011l3.2168-.0004v.1005a2.13622,2.13622,0,0,0-.13869.8575V305.5a3.68509,3.68509,0,0,0,.10349,1.1738,23.40489,23.40489,0,0,1-5.4336.6241c-5.3711,0-8.00589-3.5245-8.00589-7.0923,0-4.0293,2.96289-7.2578,8.12109-7.2578a23.606,23.606,0,0,1,3.7383.3544Zm36.8067,4.2847a7.4184,7.4184,0,0,1-7.6524,7.3208,7.28177,7.28177,0,0,1-7.59369-7.2168,7.39361,7.39361,0,0,1,7.80079-7.1543A7.17792,7.17792,0,0,1,458.53909,299.9771ZM445.666,299.894c0,2.9117,2.05859,5.9068,5.32419,5.9068a5.05,5.05,0,0,0,5.17581-5.4082c0-3.0357-1.93361-5.9688-5.21871-5.9688A5.127,5.127,0,0,0,445.666,299.894Zm40.33009-6.6386c2.8867,0,4.5488,1.4907,4.5488,3.7368,0,2.2851-2.0683,3.8115-4.5761,3.8115a2.87607,2.87607,0,0,1-1.5176-.2915c1.7851-.0449,3.9394-1.0474,3.9394-3.0122,0-1.6714-1.0703-2.7715-3.0625-2.7715h-1.5644v9.5274c0,1.164,0,2.0859,1.082,2.6464v.1016h-4.1484v-.1016c1.041-.3398.9394-1.9394.9394-2.875V296.187c0-.9624.0606-2.5093-.916-2.831v-.1006Zm-16.8066,12.5454c-2.1582,0-3.4004-1.3438-3.4004-4.3145V296.168c0-.9366-.0606-2.4141.914-2.8111v-.1015h-3.957v.1015c1.0137.377.916,1.8745.916,2.8111v5.4922c0,3.706,2.17191,5.6377,5.5274,5.6377,3.707,0,5.5253-2.3331,5.5253-5.6377V296.168c0-.9366-.0781-2.4243.9161-2.8111v-.1015h-3.9571v.1015c1.002.3868.9141,1.8745.9141,2.8111v5.3183C472.58789,304.4307,471.34379,305.8008,469.18949,305.8008Zm-35.2266-12.5454c3.0273,0,4.3262,1.6806,4.3262,3.582,0,2.1533-1.4668,3.2222-3.1348,3.6729l2.4004,3.0444c.8808,1.084,2.3516,3.0215,4.61131,3.3476v.1016a8.07452,8.07452,0,0,1-1.67971.1777,5.21939,5.21939,0,0,1-4.4648-2.4668c-.52349-.6953-3.5117-4.7592-3.5117-4.7592,1.6699-.2505,3.6484-1.0923,3.6484-2.9712,0-1.5044-1.2773-2.2573-2.6797-2.2573h-1.793v9.353c0,.959-.0664,2.4658.94151,2.8222v.1016h-3.99221v-.1016c.98821-.3632.9238-1.8828.9238-2.8222v-7.878c0-.9619.0879-2.4838-.9238-2.8452v-.1015Z" transform="translate(-302.28269 -292.6709)"/><path class="cls-2" d="M336.937,304.0547c0,.9394.07229,2.4863-.917,2.8476v.1016h3.961v-.1016c-.97661-.3418-.91611-1.9082-.91611-2.8476v-7.8594c0-.939-.0898-2.4556.91611-2.8384v-.1015H336.02v.1015c1.00489.3619.917,1.8804.917,2.8384Zm-16.35451-10.7993v.1015c1.0108.3614.9229,1.8833.9229,2.8452v7.878c0,.9394.0654,2.459-.9229,2.8222v.1016h3.9903v-.1016c-1.0079-.3564-.9395-1.8632-.9395-2.8222v-9.353h1.792c1.4023,0,2.67971.7529,2.67971,2.2573,0,1.8789-1.97851,2.7207-3.64751,2.9712,0,0,2.9873,4.0639,3.5117,4.7592a5.21971,5.21971,0,0,0,4.4649,2.4668,8.08039,8.08039,0,0,0,1.6787-.1777v-.1016c-2.25979-.3261-3.7305-2.2636-4.6123-3.3476l-2.4004-3.0444c1.66991-.4507,3.1367-1.5196,3.1367-3.6729,0-1.9014-1.29979-3.582-4.3271-3.582Zm35.2637.1645a14.1036,14.1036,0,0,0-3.5459-.4961c-3.6807,0-7.5908,2.8116-7.5908,7.1602,0,4.4726,3.5957,7.2109,7.5908,7.2109a10.49992,10.49992,0,0,0,3.5459-.6064l1.0664-2.4229h-.1025a7.48755,7.48755,0,0,1-4.5166,1.5332c-2.8409,0-5.2022-2.582-5.2022-6.0278a5.07047,5.07047,0,0,1,5.2022-5.3403,7.43949,7.43949,0,0,1,4.0332,1.3877Zm8.17481,6.8267h1.54779c.9708,0,1.6866.0884,2.0704.7256h.1015l-.247-2.1973H364.021v-4.0474h2.78029c1.0429,0,2.54.2007,3.1123,1.0811h.1035l-.5342-2.5532h-8.5303v.0996c.9991.3139.94141,1.8857.94141,2.8467v7.8784c0,.9394.07819,2.4297-.94141,2.8222v.1016h8.7129l.9512-2.7656h-.1025a3.308,3.308,0,0,1-2.78419,1.2949h-3.709Zm13.43649-4.0445,10.1319,11.127h.0859v-11.377c0-1.1713.0342-2.1284,1.0869-2.5957v-.101h-3.6768v.102c1.0469.4463,1.086,1.4234,1.086,2.5947v6.6846l-8.6006-9.3813h-2.7031v.1006c1.1025.6186,1.0849,1.4248,1.0849,2.5961v8.337c0,1.1699,0,1.9658-1.1084,2.6132v.1016h3.7002v-.1016c-1.10839-.6474-1.0869-1.4433-1.0869-2.6132Zm25.4488-.5073h-.1036a3.6434,3.6434,0,0,0-2.44669-.9677h-1.83891v9.4584c0,.9395-.0459,2.3614.92191,2.7168v.1016h-3.96881v-.1016c.9883-.3906.9199-1.7773.9199-2.7168v-9.4584h-1.8427a3.64432,3.64432,0,0,0-2.44439.9677h-.10351l.73151-2.6001h.10439a1.479,1.479,0,0,0,.753.1597h7.728a1.41494,1.41494,0,0,0,.7559-.1597h.1015Zm-94.0318-.3589,1.3672-2.665,4.7881,11.5791a4.49206,4.49206,0,0,0,1.8613,2.6523v.1016H312.564v-.1016c.43359-.1503.67569-.2871.67569-.6152a4.40626,4.40626,0,0,0-.3994-1.2988Zm-1.8916,7.6661c1.374-2.6817,2.87111-2.605,3.3584-2.6553a5.53217,5.53217,0,0,0-1.3037-.1577c-2.375,0-3.3545,1.3481-4.3701,3.3471-.168.3311-.5772,1.126-.5772,1.126-.5029.9736-.8125,1.7988-1.8076,2.2402v.1026h3.9834v-.1006c-.4609-.1094-.6728-.3398-.6728-.6504a2.84628,2.84628,0,0,1,.4101-1.3437Z" transform="translate(-302.28269 -292.6709)"/><path class="cls-1" d="M493.08979,293.7231v-.3671h1.8731v.3671h-.7188v1.8316h-.4355v-1.8316Zm2.875-.3671.5625,1.5742.5645-1.5742h.625v2.1987h-.4023v-1.7744l-.6094,1.7744h-.3516l-.6133-1.7744v1.7744h-.4043V293.356Z" transform="translate(-302.28269 -292.6709)"/></svg>